<svg data-v-d3f97b9e="" xmlns="http://www.w3.org/2000/svg" viewBox="0 0 540 90"><!----><linearGradient data-v-d3f97b9e="" gradientTransform="rotate(25)" id="475e9bab-b014-48a9-a2fa-3223afffa5f9" x1="0%" y1="0%" x2="100%" y2="0%"><stop data-v-d3f97b9e="" offset="0%" style="stop-color: rgb(33, 105, 15); stop-opacity: 1;"></stop><stop data-v-d3f97b9e="" offset="100%" style="stop-color: rgb(136, 200, 72); stop-opacity: 1;"></stop></linearGradient><!----><g data-v-d3f97b9e="" id="5d01a56e-614c-4e17-95ea-45b61006c588" fill="#ffffff" transform="matrix(5.842259288922937,0,0,5.842259288922937,105.46313902738922,-20.214216885700708)"><path d="M6.13 6.50C6.13 7.34 5.57 7.88 4.98 8.12C4.59 8.27 4.20 8.32 3.70 8.32C2.87 8.32 2.77 8.32 2.77 8.06L2.77 4.77C2.77 4.76 2.76 4.75 2.76 4.73C2.76 4.63 2.77 4.55 2.84 4.51C2.97 4.41 3.50 4.37 3.68 4.37C5.10 4.37 6.13 5.38 6.13 6.50ZM3.96 3.82C3.04 3.82 2.11 3.99 0.87 3.99L0.38 3.99C0.25 3.99 0.20 4.05 0.20 4.26C0.20 4.40 0.27 4.45 0.41 4.48C1.37 4.65 1.58 4.63 1.58 5.08L1.58 12.32C1.58 12.60 1.54 12.77 1.20 12.81C0.56 12.87 0.34 12.84 0.34 13.15C0.34 13.31 0.38 13.52 0.59 13.52C0.64 13.52 1.41 13.44 2.38 13.44C3.35 13.44 4.13 13.52 4.19 13.52C4.37 13.52 4.47 13.40 4.47 13.22C4.47 12.78 4.13 12.84 3.19 12.75C2.84 12.71 2.83 12.47 2.83 12.31L2.83 12.26L2.83 9.03C2.83 8.86 2.90 8.82 3.02 8.82L4.05 8.82C4.14 8.82 4.21 8.82 4.28 8.88C4.37 8.93 4.33 8.88 5.57 10.61L6.97 12.60C7.14 12.82 7.71 13.62 8.46 13.62C9.27 13.62 9.67 12.81 9.67 12.60C9.67 12.52 9.62 12.45 9.53 12.45C9.35 12.45 9.30 12.75 8.93 12.75C8.64 12.75 8.37 12.53 8.18 12.31C7.64 11.68 7.31 10.72 5.59 8.71C5.57 8.69 5.56 8.68 5.56 8.65C5.56 8.61 5.60 8.60 5.63 8.58C6.01 8.44 7.22 7.66 7.22 6.26C7.22 5.28 6.48 3.82 3.96 3.82ZM10.15 8.61C10.15 8.93 10.44 9.11 10.71 9.11C10.89 9.11 10.98 9.02 11.02 8.96C11.05 8.90 11.42 8.02 12.22 8.02C12.59 8.02 12.87 8.22 13.03 8.40C13.31 8.72 13.37 9.07 13.37 9.52L13.37 10.02C13.37 10.12 13.36 10.19 13.26 10.22C13.23 10.23 11.55 10.29 10.79 10.89C10.46 11.16 10.21 11.61 10.21 12.14L10.21 12.15C10.21 13.01 10.84 13.72 11.80 13.72C12.32 13.72 12.78 13.54 13.10 13.33C13.45 13.09 13.41 13.02 13.48 13.02C13.50 13.02 13.50 13.03 13.51 13.03C13.54 13.05 13.87 13.61 14.50 13.61C15.23 13.61 15.58 12.82 15.58 12.50C15.58 12.38 15.51 12.32 15.46 12.32C15.25 12.32 15.27 12.78 14.84 12.78C14.70 12.78 14.36 12.71 14.36 12.17L14.36 9.41C14.36 9.24 14.35 9.07 14.34 8.90C14.20 7.53 12.84 7.36 12.31 7.36C11.14 7.36 10.15 8.11 10.15 8.61ZM12.14 12.95C11.96 12.95 11.70 12.92 11.54 12.77C11.31 12.57 11.24 12.22 11.24 12.00C11.24 11.65 11.40 11.40 11.58 11.24C12.04 10.81 12.99 10.74 13.24 10.74C13.37 10.74 13.38 10.81 13.38 11.14L13.38 11.72L13.38 12.05C13.38 12.18 13.37 12.28 13.30 12.38C13.23 12.47 12.82 12.95 12.14 12.95ZM17.65 7.91C17.65 7.49 17.70 4.56 17.70 3.74C17.70 3.51 17.58 3.47 17.50 3.46C17.44 3.46 17.32 3.51 15.90 4.07C15.83 4.10 15.72 4.14 15.72 4.26C15.72 4.37 15.89 4.44 16.51 4.82C16.63 4.90 16.67 4.96 16.67 5.12C16.67 6.76 16.63 11.68 16.63 13.31C16.63 13.51 16.66 13.73 16.86 13.73C17.07 13.73 17.14 13.44 17.56 13.44C17.98 13.44 18.24 13.71 18.91 13.71C19.22 13.71 19.89 13.65 20.48 13.43C22.04 12.84 22.34 11.40 22.34 10.51C22.34 8.67 21.25 7.42 19.61 7.42C18.42 7.42 17.84 7.99 17.71 7.99C17.68 7.99 17.65 7.98 17.65 7.91ZM21.46 10.75C21.46 12.17 20.51 13.13 19.08 13.13C18.63 13.13 18.20 13.03 17.79 12.87C17.63 12.80 17.60 12.70 17.60 12.53C17.60 12.50 17.61 12.46 17.61 12.43L17.61 8.85C17.61 8.55 18.48 8.16 19.12 8.16C20.33 8.16 21.46 9.18 21.46 10.75ZM24.46 7.91C24.46 7.49 24.50 4.56 24.50 3.74C24.50 3.51 24.39 3.47 24.30 3.46C24.25 3.46 24.12 3.51 22.71 4.07C22.64 4.10 22.53 4.14 22.53 4.26C22.53 4.37 22.69 4.44 23.31 4.82C23.44 4.90 23.48 4.96 23.48 5.12C23.48 6.76 23.44 11.68 23.44 13.31C23.44 13.51 23.46 13.73 23.66 13.73C23.87 13.73 23.94 13.44 24.36 13.44C24.78 13.44 25.05 13.71 25.72 13.71C26.03 13.71 26.70 13.65 27.29 13.43C28.84 12.84 29.15 11.40 29.15 10.51C29.15 8.67 28.06 7.42 26.42 7.42C25.23 7.42 24.64 7.99 24.51 7.99C24.49 7.99 24.46 7.98 24.46 7.91ZM28.27 10.75C28.27 12.17 27.31 13.13 25.89 13.13C25.44 13.13 25.00 13.03 24.60 12.87C24.43 12.80 24.40 12.70 24.40 12.53C24.40 12.50 24.42 12.46 24.42 12.43L24.42 8.85C24.42 8.55 25.28 8.16 25.93 8.16C27.13 8.16 28.27 9.18 28.27 10.75ZM30.73 4.79C30.73 5.17 31.02 5.45 31.39 5.45C31.75 5.45 32.07 5.15 32.07 4.77C32.07 4.42 31.77 4.13 31.40 4.13C31.04 4.13 30.73 4.42 30.73 4.79ZM30.59 11.75L30.59 12.40C30.59 12.66 30.56 12.85 30.21 12.91C29.58 12.99 29.53 12.96 29.53 13.29C29.53 13.43 29.60 13.52 29.74 13.52C29.78 13.52 30.32 13.44 31.02 13.44C31.71 13.44 32.27 13.52 32.31 13.52C32.47 13.52 32.48 13.33 32.48 13.22C32.48 12.98 32.31 12.99 31.85 12.92C31.54 12.88 31.53 12.84 31.53 11.13L31.53 10.67C31.53 8.96 31.61 7.60 31.61 7.49C31.61 7.32 31.50 7.27 31.42 7.27L31.40 7.27C31.33 7.27 31.32 7.29 29.86 7.99C29.71 8.06 29.48 8.12 29.48 8.29C29.48 8.40 29.58 8.44 29.65 8.47C30.55 8.83 30.60 8.82 30.60 9.04C30.60 9.31 30.59 10.12 30.59 11.75ZM38.39 13.44C39.30 13.44 40.04 13.52 40.08 13.52C40.26 13.52 40.31 13.37 40.31 13.13C40.31 12.81 39.83 12.85 39.62 12.82C38.95 12.75 38.95 12.56 38.95 12.36L38.95 8.57C38.95 8.43 38.98 8.33 39.16 8.33L43.93 8.33C44.06 8.33 44.11 8.36 44.11 8.48L44.11 12.28C44.11 12.59 44.09 12.80 43.69 12.81C42.84 12.88 42.70 12.81 42.70 13.24C42.70 13.38 42.74 13.52 42.92 13.52C42.98 13.52 43.71 13.44 44.62 13.44C45.53 13.44 46.27 13.52 46.33 13.52C46.55 13.52 46.61 13.33 46.61 13.16C46.61 12.80 46.27 12.85 45.74 12.81C45.37 12.78 45.35 12.53 45.35 12.36L45.35 12.29L45.35 4.94C45.35 4.76 45.37 4.58 45.72 4.54C46.38 4.44 46.69 4.48 46.69 4.07C46.69 3.91 46.59 3.79 46.42 3.79C46.37 3.79 45.58 3.85 44.59 3.85C43.72 3.85 43.29 3.82 43.15 3.82C42.92 3.82 42.81 3.95 42.81 4.16C42.81 4.61 43.44 4.38 43.81 4.54C44.09 4.63 44.10 4.90 44.10 5.14L44.10 7.21C44.10 7.32 44.09 7.46 43.86 7.46L39.13 7.46C38.98 7.46 38.95 7.38 38.95 7.27L38.95 4.96C38.95 4.70 38.99 4.55 39.27 4.54C40.12 4.48 40.33 4.52 40.33 4.24C40.33 4.20 40.32 4.16 40.32 4.12C40.29 3.95 40.26 3.82 40.05 3.82C39.89 3.82 39.38 3.85 38.37 3.85L38.33 3.85C37.35 3.85 36.86 3.82 36.69 3.82C36.43 3.82 36.37 4.10 36.37 4.20C36.37 4.51 36.74 4.45 36.99 4.49C37.41 4.55 37.70 4.52 37.70 4.97L37.70 12.38C37.70 12.61 37.67 12.80 37.34 12.82C36.57 12.88 36.39 12.84 36.39 13.15C36.39 13.36 36.44 13.52 36.67 13.52C36.72 13.52 37.45 13.44 38.39 13.44ZM47.14 10.58C47.14 12.31 48.33 13.71 50.11 13.71C51.67 13.71 53.09 12.59 53.09 10.58C53.09 8.71 51.83 7.39 50.16 7.39C48.59 7.39 47.14 8.64 47.14 10.58ZM50.15 13.02C49 13.02 48.23 11.97 48.23 10.51C48.23 8.64 49.34 8.05 50.06 8.05C51.13 8.05 52.14 9.14 52.14 10.64C52.14 11.89 51.34 13.02 50.15 13.02ZM53.82 9.11C53.82 9.80 54.24 10.50 55.37 10.82C55.82 10.95 57.05 11.09 57.05 12.01C57.05 12.57 56.55 12.95 55.92 12.95C55.10 12.95 54.46 12.42 54.32 12.12C54.12 11.73 54.35 11.26 54.00 11.26C53.79 11.26 53.75 11.33 53.75 11.69C53.75 11.89 53.76 12.15 53.76 12.53C53.76 12.74 53.79 12.85 53.93 13.01C54.33 13.48 55.22 13.71 55.86 13.71C57.25 13.71 57.99 12.71 57.99 11.82C57.99 11.59 57.93 11.13 57.57 10.71C57.05 10.11 56.39 10.07 55.68 9.87C54.64 9.58 54.57 9.06 54.57 8.86C54.57 8.41 54.98 8.12 55.45 8.12C55.92 8.12 56.42 8.41 56.60 8.67C56.80 8.95 56.76 9.35 57.05 9.35C57.16 9.35 57.37 9.31 57.37 9.13C57.37 9.07 57.19 8.15 57.11 7.66C57.09 7.59 57.05 7.39 56.88 7.39C56.71 7.39 56.66 7.53 56.53 7.53C56.46 7.53 56.25 7.46 55.83 7.46C54.57 7.46 53.82 8.27 53.82 9.11ZM58.52 8.61C58.52 8.93 58.81 9.11 59.08 9.11C59.26 9.11 59.35 9.02 59.39 8.96C59.42 8.90 59.79 8.02 60.59 8.02C60.96 8.02 61.24 8.22 61.40 8.40C61.68 8.72 61.74 9.07 61.74 9.52L61.74 10.02C61.74 10.12 61.73 10.19 61.63 10.22C61.60 10.23 59.92 10.29 59.16 10.89C58.83 11.16 58.58 11.61 58.58 12.14L58.58 12.15C58.58 13.01 59.21 13.72 60.17 13.72C60.69 13.72 61.15 13.54 61.47 13.33C61.82 13.09 61.78 13.02 61.85 13.02C61.87 13.02 61.87 13.03 61.88 13.03C61.91 13.05 62.24 13.61 62.87 13.61C63.60 13.61 63.95 12.82 63.95 12.50C63.95 12.38 63.88 12.32 63.83 12.32C63.62 12.32 63.64 12.78 63.21 12.78C63.07 12.78 62.73 12.71 62.73 12.17L62.73 9.41C62.73 9.24 62.72 9.07 62.71 8.90C62.57 7.53 61.21 7.36 60.68 7.36C59.51 7.36 58.52 8.11 58.52 8.61ZM60.51 12.95C60.33 12.95 60.07 12.92 59.91 12.77C59.68 12.57 59.61 12.22 59.61 12.00C59.61 11.65 59.77 11.40 59.95 11.24C60.41 10.81 61.36 10.74 61.61 10.74C61.74 10.74 61.75 10.81 61.75 11.14L61.75 11.72L61.75 12.05C61.75 12.18 61.74 12.28 61.67 12.38C61.60 12.47 61.19 12.95 60.51 12.95ZM65.49 4.79C65.49 5.17 65.79 5.45 66.15 5.45C66.51 5.45 66.84 5.15 66.84 4.77C66.84 4.42 66.53 4.13 66.16 4.13C65.80 4.13 65.49 4.42 65.49 4.79ZM65.35 11.75L65.35 12.40C65.35 12.66 65.32 12.85 64.97 12.91C64.34 12.99 64.29 12.96 64.29 13.29C64.29 13.43 64.36 13.52 64.50 13.52C64.54 13.52 65.09 13.44 65.79 13.44C66.47 13.44 67.03 13.52 67.07 13.52C67.23 13.52 67.24 13.33 67.24 13.22C67.24 12.98 67.07 12.99 66.61 12.92C66.30 12.88 66.29 12.84 66.29 11.13L66.29 10.67C66.29 8.96 66.37 7.60 66.37 7.49C66.37 7.32 66.26 7.27 66.18 7.27L66.16 7.27C66.09 7.27 66.08 7.29 64.62 7.99C64.47 8.06 64.25 8.12 64.25 8.29C64.25 8.40 64.34 8.44 64.41 8.47C65.31 8.83 65.37 8.82 65.37 9.04C65.37 9.31 65.35 10.12 65.35 11.75ZM69.41 8.16C69.41 8.15 69.43 8.11 69.43 8.08L69.43 7.53C69.43 7.42 69.38 7.32 69.26 7.32C69.20 7.32 69.16 7.35 69.12 7.38C67.82 8.08 67.79 8.06 67.79 8.18L67.79 8.19C67.79 8.25 67.83 8.29 67.87 8.33C68.50 8.81 68.50 8.78 68.50 9.11L68.50 12.46C68.50 12.70 68.49 12.88 68.14 12.94C67.70 13.01 67.59 12.99 67.59 13.27C67.59 13.47 67.73 13.52 67.82 13.52C67.86 13.52 68.38 13.44 69.05 13.44C69.73 13.44 70.31 13.54 70.35 13.54C70.48 13.54 70.53 13.43 70.53 13.29C70.53 12.98 70.36 13.01 69.78 12.91C69.48 12.87 69.47 12.67 69.47 12.52L69.47 12.47L69.47 9.16C69.47 9.10 69.47 9.03 69.48 8.97C69.54 8.72 70.11 8.06 70.92 8.06C71.25 8.06 72.02 8.19 72.32 8.90C72.49 9.32 72.51 10.16 72.51 10.42L72.51 12.59C72.51 12.82 72.46 12.89 72.28 12.92C71.72 13.02 71.55 12.99 71.55 13.24C71.55 13.38 71.58 13.52 71.75 13.52C71.78 13.52 72.28 13.44 72.90 13.44C73.60 13.44 73.95 13.52 74.07 13.52C74.16 13.52 74.28 13.48 74.28 13.24C74.28 13.15 74.27 13.02 74.09 12.99C73.60 12.92 73.42 12.95 73.42 12.56L73.42 12.53C73.42 10.60 73.43 10.35 73.43 10.11C73.43 9.87 73.43 9.63 73.40 9.39C73.26 7.66 72.04 7.38 71.41 7.38L71.39 7.38C70.18 7.39 69.52 8.22 69.47 8.22L69.45 8.22C69.44 8.22 69.41 8.20 69.41 8.16Z"></path></g><!----><g data-v-d3f97b9e="" id="71324ac2-7ca9-4e17-b631-f33cef6b66be" transform="matrix(1.0526315789473684,0,0,1.0526315789473684,-9.831580563595416,-4.210526315789473)" stroke="none" fill="#ffffff"><path d="M38.7 46.7c0 8 6.5 14.5 14.5 14.5s14.5-6.5 14.5-14.5-6.5-14.5-14.5-14.5-14.5 6.5-14.5 14.5z"></path><path d="M71.5 57.3c-.6 1.1-1.3 2.1-2.1 3.1-4 4.9-10 8-16.8 8-11.9 0-21.6-9.7-21.6-21.7 0-11.9 9.7-21.6 21.6-21.6 6.7 0 12.7 3.1 16.7 7.8.8.9 1.5 1.9 2.1 3l20.7-5.8c-1.5-3.5-3.4-6.7-5.6-9.6C78.6 10.5 66.4 4 52.6 4 29 4 9.8 23.1 9.8 46.7S29 89.5 52.6 89.5c17.7 0 33-10.8 39.5-26.2l-20.6-6z"></path></g><!----><g data-v-d3f97b9e="" id="a962aaa1-dd4b-490e-af4a-021be1d680c8" fill="#ffffff" transform="matrix(1.2041723108081344,0,0,1.2041723108081344,106.29440635229705,55.99010744574778)"><path d="M0.28 3.71L0.28 3.71L0.28 3.71Q0.28 3.53 0.67 3.53L0.67 3.53L0.67 3.53Q0.81 3.53 1.32 3.54L1.32 3.54L1.32 3.54Q1.82 3.56 2.25 3.56L2.25 3.56L2.25 3.56Q2.51 3.56 2.72 3.54L2.72 3.54L2.72 3.54Q2.93 3.53 3.46 3.53L3.46 3.53L3.46 3.53Q3.70 3.53 3.70 3.71L3.70 3.71L3.70 3.71Q3.70 3.77 3.63 3.81L3.63 3.81L3.63 3.81Q3.56 3.85 3.42 3.91L3.42 3.91L3.42 3.91Q3.29 3.96 3.21 4.00L3.21 4.00L3.21 4.00Q2.77 4.26 2.77 5.71L2.77 5.71L2.77 5.71Q2.77 6.47 2.75 7.17L2.75 7.17L2.75 7.17Q2.73 7.87 2.73 7.90L2.73 7.90L2.73 7.90Q2.73 8.19 2.86 8.19L2.86 8.19L2.86 8.19Q2.95 8.19 3.98 7.36L3.98 7.36L3.98 7.36Q5.00 6.52 6.01 5.55L6.01 5.55L6.01 5.55Q7.01 4.58 7.01 4.27L7.01 4.27L7.01 4.27Q7.01 4.19 6.97 4.12L6.97 4.12L6.97 4.12Q6.93 4.06 6.83 4.02L6.83 4.02L6.83 4.02Q6.73 3.98 6.66 3.96L6.66 3.96L6.66 3.96Q6.59 3.93 6.47 3.91L6.47 3.91L6.47 3.91Q6.34 3.89 6.31 3.88L6.31 3.88L6.31 3.88Q6.16 3.85 6.16 3.68L6.16 3.68L6.16 3.68Q6.16 3.53 6.38 3.53L6.38 3.53L6.38 3.53Q6.41 3.53 6.53 3.54L6.53 3.54L6.53 3.54Q6.65 3.54 6.73 3.54L6.73 3.54L6.73 3.54Q6.76 3.54 7.06 3.56L7.06 3.56L7.06 3.56Q7.36 3.57 7.57 3.57L7.57 3.57L9.31 3.53L9.31 3.53Q9.59 3.53 9.59 3.71L9.59 3.71L9.59 3.71Q9.59 3.81 9.51 3.86L9.51 3.86L9.51 3.86Q9.42 3.91 9.18 3.98L9.18 3.98L9.18 3.98Q8.95 4.05 8.78 4.12L8.78 4.12L8.78 4.12Q8.71 4.14 8.09 4.54L8.09 4.54L8.09 4.54Q7.97 4.62 6.51 5.84L6.51 5.84L6.51 5.84Q5.46 6.73 4.07 7.90L4.07 7.90L3.92 8.09L3.92 8.09Q3.92 8.16 4.07 8.32L4.07 8.32L4.07 8.32Q4.73 8.97 5.78 10.01L5.78 10.01L5.78 10.01Q7.73 11.94 8.30 12.42L8.30 12.42L8.30 12.42Q8.88 12.91 9.39 12.99L9.39 12.99L9.39 12.99Q9.80 13.05 9.86 13.16L9.86 13.16L9.86 13.16Q9.87 13.19 9.87 13.24L9.87 13.24L9.87 13.24Q9.87 13.37 9.75 13.40L9.75 13.40L9.75 13.40Q9.63 13.43 9.06 13.43L9.06 13.43L7.70 13.43L7.70 13.43Q7.60 13.43 7.55 13.41L7.55 13.41L7.55 13.41Q7.50 13.40 7.46 13.37L7.46 13.37L7.46 13.37Q7.41 13.34 7.33 13.25L7.33 13.25L7.33 13.25Q7.25 13.16 7.15 13.04L7.15 13.04L7.15 13.04Q7.04 12.92 6.83 12.68L6.83 12.68L6.83 12.68Q6.61 12.43 6.34 12.17L6.34 12.17L6.34 12.17Q3.37 9.16 3.22 9.03L3.22 9.03L3.22 9.03Q3.07 8.90 2.95 8.90L2.95 8.90L2.95 8.90Q2.76 8.90 2.76 9.28L2.76 9.28L2.76 9.32L2.76 9.32Q2.76 9.37 2.77 9.45L2.77 9.45L2.77 9.45Q2.77 9.53 2.77 9.65L2.77 9.65L2.77 9.65Q2.77 9.76 2.77 9.95L2.77 9.95L2.77 9.95Q2.77 10.14 2.77 10.36L2.77 10.36L2.77 10.36Q2.77 12.19 2.98 12.57L2.98 12.57L2.98 12.57Q3.25 13.02 3.92 13.02L3.92 13.02L3.92 13.02Q3.95 13.02 3.98 13.03L3.98 13.03L3.98 13.03Q4.00 13.03 4.03 13.03L4.03 13.03L4.03 13.03Q4.13 13.03 4.23 13.08L4.23 13.08L4.23 13.08Q4.33 13.13 4.33 13.19L4.33 13.19L4.33 13.19Q4.33 13.34 4.25 13.39L4.25 13.39L4.25 13.39Q4.17 13.44 3.98 13.44L3.98 13.44L3.98 13.44Q3.56 13.44 3.20 13.41L3.20 13.41L3.20 13.41Q2.84 13.38 2.65 13.38L2.65 13.38L2.65 13.38Q2.25 13.38 1.79 13.42L1.79 13.42L1.79 13.42Q1.33 13.45 1.11 13.45L1.11 13.45L1.11 13.45Q0.60 13.45 0.60 13.30L0.60 13.30L0.60 13.24L0.60 13.24Q0.60 13.15 0.73 13.11L0.73 13.11L0.73 13.11Q0.87 13.08 1.06 13.02L1.06 13.02L1.06 13.02Q1.26 12.96 1.37 12.85L1.37 12.85L1.37 12.85Q1.57 12.66 1.62 11.95L1.62 11.95L1.62 11.95Q1.67 11.24 1.67 9.69L1.67 9.69L1.67 7.81L1.67 7.81Q1.67 7.63 1.65 7.12L1.65 7.12L1.65 7.12Q1.64 6.61 1.64 6.30L1.64 6.30L1.64 5.66L1.64 5.66Q1.64 4.94 1.60 4.63L1.60 4.63L1.60 4.63Q1.55 4.30 1.24 4.12L1.24 4.12L1.24 4.12Q0.92 3.93 0.57 3.92L0.57 3.92L0.57 3.92Q0.28 3.91 0.28 3.71ZM17.42 3.77L17.42 3.77L17.42 3.77Q17.42 3.68 17.51 3.60L17.51 3.60L17.51 3.60Q17.61 3.53 17.77 3.53L17.77 3.53L17.77 3.53Q17.85 3.53 18.05 3.54L18.05 3.54L18.05 3.54Q18.24 3.54 18.30 3.54L18.30 3.54L18.30 3.54Q18.51 3.54 18.69 3.53L18.69 3.53L18.69 3.53Q18.87 3.51 18.98 3.51L18.98 3.51L18.98 3.51Q19.11 3.51 19.28 3.59L19.28 3.59L19.28 3.59Q19.45 3.67 19.47 3.75L19.47 3.75L19.47 3.75Q19.50 3.79 19.63 3.94L19.63 3.94L19.63 3.94Q19.75 4.09 19.96 4.33L19.96 4.33L19.96 4.33Q20.17 4.56 20.34 4.79L20.34 4.79L20.34 4.79Q22.25 7.27 25.44 10.77L25.44 10.77L25.44 10.77Q25.52 10.86 25.64 10.99L25.64 10.99L25.64 10.99Q25.76 11.12 25.81 11.18L25.81 11.18L25.81 11.18Q25.86 11.24 25.91 11.30L25.91 11.30L25.91 11.30Q25.97 11.35 26.01 11.38L26.01 11.38L26.01 11.38Q26.04 11.40 26.07 11.40L26.07 11.40L26.07 11.40Q26.21 11.40 26.21 10.53L26.21 10.53L26.21 8.89L26.21 8.89Q26.21 7.95 26.20 7.31L26.20 7.31L26.20 7.31Q26.19 6.66 26.19 6.38L26.19 6.38L26.19 6.38Q26.18 6.09 26.18 6.02L26.18 6.02L26.18 5.92L26.18 5.92Q26.18 5.45 26.12 5.11L26.12 5.11L26.12 5.11Q26.05 4.77 25.97 4.59L25.97 4.59L25.97 4.59Q25.89 4.41 25.73 4.28L25.73 4.28L25.73 4.28Q25.56 4.16 25.45 4.12L25.45 4.12L25.45 4.12Q25.34 4.09 25.13 4.05L25.13 4.05L25.13 4.05Q24.92 4.00 24.84 3.98L24.84 3.98L24.84 3.98Q24.56 3.89 24.56 3.74L24.56 3.74L24.56 3.74Q24.56 3.53 24.82 3.53L24.82 3.53L24.82 3.53Q24.91 3.53 25.49 3.54L25.49 3.54L25.49 3.54Q26.08 3.54 26.15 3.54L26.15 3.54L26.15 3.54Q26.49 3.54 26.90 3.53L26.90 3.53L26.90 3.53Q27.31 3.51 27.41 3.51L27.41 3.51L27.41 3.51Q27.65 3.51 27.74 3.56L27.74 3.56L27.74 3.56Q27.83 3.61 27.83 3.75L27.83 3.75L27.83 3.75Q27.83 3.81 27.76 3.86L27.76 3.86L27.76 3.86Q27.68 3.91 27.59 3.94L27.59 3.94L27.59 3.94Q27.51 3.98 27.43 4.00L27.43 4.00L27.34 4.03L27.34 4.03Q26.88 4.28 26.88 5.61L26.88 5.61L26.88 6.15L26.88 6.15Q26.88 7.21 26.80 9.83L26.80 9.83L26.80 9.83Q26.73 12.46 26.73 13.08L26.73 13.08L26.73 13.36L26.73 13.36Q26.73 13.68 26.53 13.68L26.53 13.68L26.53 13.68Q26.40 13.68 26.31 13.58L26.31 13.58L26.31 13.58Q21.66 8.19 20.76 7.17L20.76 7.17L20.76 7.17Q19.85 6.16 19.75 6.16L19.75 6.16L19.75 6.16Q19.61 6.16 19.61 7.11L19.61 7.11L19.61 7.11Q19.61 8.44 19.56 9.97L19.56 9.97L19.56 9.97Q19.50 11.51 19.50 11.65L19.50 11.65L19.50 11.65Q19.50 12.28 19.72 12.61L19.72 12.61L19.72 12.61Q19.94 12.94 20.19 12.98L20.19 12.98L20.19 12.98Q20.44 13.02 20.66 13.07L20.66 13.07L20.66 13.07Q20.87 13.12 20.87 13.26L20.87 13.26L20.87 13.26Q20.87 13.41 20.83 13.45L20.83 13.45L20.83 13.45Q20.78 13.50 20.65 13.50L20.65 13.50L20.65 13.50Q20.55 13.50 20.21 13.48L20.21 13.48L20.21 13.48Q19.87 13.47 19.15 13.47L19.15 13.47L19.15 13.47Q19.03 13.47 18.63 13.48L18.63 13.48L18.63 13.48Q18.24 13.50 17.96 13.50L17.96 13.50L17.96 13.50Q17.65 13.50 17.65 13.27L17.65 13.27L17.65 13.27Q17.65 13.15 17.84 13.11L17.84 13.11L17.84 13.11Q18.02 13.08 18.28 12.89L18.28 12.89L18.28 12.89Q18.55 12.71 18.69 12.21L18.69 12.21L18.69 12.21Q18.77 11.89 18.90 9.60L18.90 9.60L18.90 9.60Q19.03 7.32 19.03 6.45L19.03 6.45L19.03 6.45Q19.03 5.25 18.69 4.65L18.69 4.65L18.69 4.65Q18.35 4.06 17.60 3.98L17.60 3.98L17.60 3.98Q17.42 3.96 17.42 3.77ZM35.92 8.69L35.92 8.69L35.92 8.69Q35.92 6.34 37.34 4.84L37.34 4.84L37.34 4.84Q38.75 3.33 41.34 3.33L41.34 3.33L41.34 3.33Q42.55 3.33 43.51 3.68L43.51 3.68L43.51 3.68Q44.48 4.03 45.04 4.54L45.04 4.54L45.04 4.54Q45.60 5.05 45.98 5.71L45.98 5.71L45.98 5.71Q46.35 6.37 46.49 6.92L46.49 6.92L46.49 6.92Q46.63 7.48 46.63 7.95L46.63 7.95L46.63 7.95Q46.63 9.86 45.89 11.16L45.89 11.16L45.89 11.16Q45.15 12.47 43.94 13.07L43.94 13.07L43.94 13.07Q42.73 13.66 41.15 13.66L41.15 13.66L41.15 13.66Q39.48 13.66 38.27 12.94L38.27 12.94L38.27 12.94Q37.06 12.21 36.49 11.10L36.49 11.10L36.49 11.10Q35.92 10.00 35.92 8.69ZM37.16 7.98L37.16 7.98L37.16 7.98Q37.16 8.54 37.31 9.19L37.31 9.19L37.31 9.19Q37.46 9.84 37.81 10.54L37.81 10.54L37.81 10.54Q38.16 11.23 38.66 11.78L38.66 11.78L38.66 11.78Q39.16 12.33 39.92 12.69L39.92 12.69L39.92 12.69Q40.68 13.05 41.59 13.05L41.59 13.05L41.59 13.05Q42.07 13.05 42.60 12.90L42.60 12.90L42.60 12.90Q43.12 12.75 43.64 12.45L43.64 12.45L43.64 12.45Q44.16 12.14 44.56 11.70L44.56 11.70L44.56 11.70Q44.97 11.26 45.23 10.62L45.23 10.62L45.23 10.62Q45.49 9.98 45.49 9.24L45.49 9.24L45.49 9.24Q45.49 6.71 44.16 5.30L44.16 5.30L44.16 5.30Q42.83 3.89 40.87 3.89L40.87 3.89L40.87 3.89Q39.33 3.89 38.24 4.93L38.24 4.93L38.24 4.93Q37.16 5.96 37.16 7.98ZM54.24 3.71L54.24 3.71L54.24 3.71Q54.24 3.51 54.61 3.51L54.61 3.51L54.61 3.51Q54.70 3.51 55.15 3.54L55.15 3.54L55.15 3.54Q55.61 3.56 56.15 3.56L56.15 3.56L56.15 3.56Q56.55 3.56 56.94 3.54L56.94 3.54L56.94 3.54Q57.33 3.51 57.36 3.51L57.36 3.51L57.36 3.51Q57.48 3.51 57.52 3.55L57.52 3.55L57.52 3.55Q57.55 3.58 57.55 3.68L57.55 3.68L57.55 3.68Q57.55 3.77 57.25 3.92L57.25 3.92L57.25 3.92Q56.95 4.07 56.95 4.34L56.95 4.34L56.95 4.34Q56.95 4.47 57.01 4.65L57.01 4.65L57.01 4.65Q57.06 4.83 57.23 5.22L57.23 5.22L57.23 5.22Q57.40 5.61 57.59 6.03L57.59 6.03L57.59 6.03Q57.78 6.45 58.17 7.33L58.17 7.33L58.17 7.33Q58.56 8.20 58.94 9.07L58.94 9.07L58.94 9.07Q59.04 9.30 59.23 9.74L59.23 9.74L59.23 9.74Q59.42 10.18 59.54 10.46L59.54 10.46L59.54 10.46Q59.65 10.74 59.79 11.05L59.79 11.05L59.79 11.05Q59.93 11.37 60.03 11.52L60.03 11.52L60.03 11.52Q60.12 11.68 60.16 11.68L60.16 11.68L60.16 11.68Q60.21 11.68 60.61 10.81L60.61 10.81L60.61 10.81Q61.00 9.94 61.31 9.17L61.31 9.17L61.31 9.17Q61.36 9.04 61.44 8.89L61.44 8.89L61.44 8.89Q61.52 8.74 61.55 8.63L61.55 8.63L61.55 8.63Q61.59 8.53 61.59 8.41L61.59 8.41L61.59 8.41Q61.59 8.25 60.75 6.36L60.75 6.36L60.75 6.36Q59.91 4.48 59.67 4.21L59.67 4.21L59.67 4.21Q59.61 4.14 59.56 4.10L59.56 4.10L59.56 4.10Q59.50 4.06 59.45 4.02L59.45 4.02L59.45 4.02Q59.40 3.99 59.37 3.97L59.37 3.97L59.37 3.97Q59.33 3.95 59.28 3.94L59.28 3.94L59.28 3.94Q59.22 3.93 59.20 3.93L59.20 3.93L59.20 3.93Q59.18 3.93 59.12 3.93L59.12 3.93L59.12 3.93Q59.05 3.92 59.04 3.92L59.04 3.92L59.04 3.92Q58.65 3.88 58.56 3.84L58.56 3.84L58.56 3.84Q58.48 3.81 58.48 3.70L58.48 3.70L58.48 3.70Q58.48 3.50 58.88 3.50L58.88 3.50L58.88 3.50Q58.97 3.50 59.43 3.53L59.43 3.53L59.43 3.53Q59.89 3.56 60.42 3.56L60.42 3.56L60.42 3.56Q60.45 3.56 60.80 3.53L60.80 3.53L60.80 3.53Q61.15 3.50 61.35 3.50L61.35 3.50L61.35 3.50Q61.77 3.50 61.77 3.61L61.77 3.61L61.77 3.61Q61.77 3.70 61.61 3.78L61.61 3.78L61.61 3.78Q61.46 3.86 61.31 4.00L61.31 4.00L61.31 4.00Q61.17 4.13 61.17 4.33L61.17 4.33L61.17 4.33Q61.17 4.59 61.60 5.57L61.60 5.57L61.60 5.57Q61.63 5.63 61.79 6.03L61.79 6.03L61.79 6.03Q61.95 6.44 62.08 6.71L62.08 6.71L62.08 6.71Q62.20 6.99 62.26 6.99L62.26 6.99L62.26 6.99Q62.37 6.99 62.82 5.76L62.82 5.76L62.82 5.76Q63.27 4.54 63.27 4.31L63.27 4.31L63.27 4.31Q63.27 4.06 63.06 3.96L63.06 3.96L63.06 3.96Q62.85 3.85 62.64 3.80L62.64 3.80L62.64 3.80Q62.43 3.75 62.43 3.64L62.43 3.64L62.43 3.64Q62.43 3.49 62.73 3.49L62.73 3.49L62.73 3.49Q62.82 3.49 63.15 3.50L63.15 3.50L63.15 3.50Q63.49 3.51 63.63 3.51L63.63 3.51L63.87 3.51L63.87 3.51Q64.06 3.51 64.61 3.47L64.61 3.47L64.74 3.47L64.74 3.47Q64.92 3.47 64.92 3.61L64.92 3.61L64.92 3.61Q64.92 3.75 64.65 3.84L64.65 3.84L64.65 3.84Q64.39 3.92 64.29 4.02L64.29 4.02L64.29 4.02Q64.06 4.24 63.90 4.66L63.90 4.66L63.90 4.66Q63.60 5.38 63.20 6.33L63.20 6.33L63.20 6.33Q62.78 7.31 62.71 7.50L62.71 7.50L62.71 7.50Q62.64 7.70 62.64 7.85L62.64 7.85L62.64 7.85Q62.64 7.97 63.49 9.87L63.49 9.87L63.49 9.87Q64.34 11.77 64.50 11.77L64.50 11.77L64.50 11.77Q64.67 11.77 66.13 8.24L66.13 8.24L66.13 8.24Q67.59 4.70 67.59 4.35L67.59 4.35L67.59 4.35Q67.59 4.13 67.43 4.01L67.43 4.01L67.43 4.01Q67.27 3.89 67.07 3.87L67.07 3.87L67.07 3.87Q66.88 3.85 66.72 3.80L66.72 3.80L66.72 3.80Q66.56 3.75 66.56 3.64L66.56 3.64L66.56 3.64Q66.56 3.54 66.60 3.52L66.60 3.52L66.60 3.52Q66.64 3.50 66.82 3.50L66.82 3.50L66.82 3.50Q66.86 3.50 67.14 3.51L67.14 3.51L67.14 3.51Q67.42 3.51 67.70 3.51L67.70 3.51L67.70 3.51Q67.96 3.51 68.27 3.50L68.27 3.50L68.27 3.50Q68.59 3.49 68.95 3.49L68.95 3.49L68.95 3.49Q69.23 3.49 69.23 3.68L69.23 3.68L69.23 3.68Q69.23 3.78 69.15 3.84L69.15 3.84L69.15 3.84Q69.08 3.89 68.92 3.98L68.92 3.98L68.92 3.98Q68.77 4.06 68.66 4.17L68.66 4.17L68.66 4.17Q68.59 4.24 68.54 4.31L68.54 4.31L68.54 4.31Q68.49 4.38 68.43 4.49L68.43 4.49L68.43 4.49Q68.38 4.59 68.34 4.66L68.34 4.66L68.34 4.66Q68.31 4.73 68.23 4.91L68.23 4.91L68.23 4.91Q68.15 5.08 68.11 5.18L68.11 5.18L68.11 5.18Q67.03 7.59 65.70 10.58L65.70 10.58L65.70 10.58Q64.64 13.01 64.44 13.41L64.44 13.41L64.44 13.41Q64.25 13.82 64.13 13.82L64.13 13.82L64.13 13.82Q64.06 13.82 63.97 13.64L63.97 13.64L63.97 13.64Q63.87 13.47 63.69 13.05L63.69 13.05L63.69 13.05Q63.52 12.64 63.49 12.57L63.49 12.57L63.49 12.57Q63.35 12.26 63.12 11.72L63.12 11.72L63.12 11.72Q62.89 11.17 62.73 10.79L62.73 10.79L62.73 10.79Q62.57 10.42 62.40 10.02L62.40 10.02L62.40 10.02Q62.23 9.63 62.12 9.43L62.12 9.43L62.12 9.43Q62.01 9.23 61.96 9.23L61.96 9.23L61.96 9.23Q61.82 9.23 61.02 11.16L61.02 11.16L61.02 11.16Q60.21 13.09 60.16 13.31L60.16 13.31L60.16 13.31Q60.14 13.37 60.12 13.43L60.12 13.43L60.12 13.43Q60.10 13.48 60.09 13.52L60.09 13.52L60.09 13.52Q60.07 13.57 60.06 13.61L60.06 13.61L60.06 13.61Q60.05 13.65 60.03 13.68L60.03 13.68L60.03 13.68Q60.02 13.71 60.01 13.73L60.01 13.73L60.01 13.73Q60.00 13.76 59.99 13.78L59.99 13.78L59.99 13.78Q59.98 13.80 59.96 13.82L59.96 13.82L59.96 13.82Q59.95 13.83 59.93 13.84L59.93 13.84L59.93 13.84Q59.92 13.85 59.91 13.85L59.91 13.85L59.91 13.85Q59.89 13.86 59.86 13.86L59.86 13.86L59.86 13.86Q59.74 13.86 59.56 13.46L59.56 13.46L59.56 13.46Q59.37 13.06 58.90 11.89L58.90 11.89L58.90 11.89Q58.42 10.72 57.93 9.65L57.93 9.65L57.93 9.65Q57.12 7.87 56.21 5.63L56.21 5.63L56.21 5.63Q55.94 4.96 55.64 4.57L55.64 4.57L55.64 4.57Q55.33 4.19 55.09 4.09L55.09 4.09L55.09 4.09Q54.85 3.99 54.66 3.98L54.66 3.98L54.66 3.98Q54.46 3.96 54.35 3.92L54.35 3.92L54.35 3.92Q54.24 3.88 54.24 3.71ZM76.78 3.71L76.78 3.71L76.78 3.71Q76.78 3.46 77.15 3.46L77.15 3.46L77.15 3.46Q77.21 3.46 77.34 3.47L77.34 3.47L77.34 3.47Q77.46 3.49 77.53 3.49L77.53 3.49L77.53 3.49Q77.67 3.49 78.06 3.51L78.06 3.51L78.06 3.51Q78.44 3.54 78.75 3.54L78.75 3.54L78.75 3.54Q79.18 3.54 79.67 3.51L79.67 3.51L79.67 3.51Q80.16 3.49 80.22 3.49L80.22 3.49L80.22 3.49Q80.46 3.49 80.46 3.63L80.46 3.63L80.46 3.63Q80.46 3.82 80.29 3.88L80.29 3.88L80.29 3.88Q80.12 3.95 79.92 3.97L79.92 3.97L79.92 3.97Q79.72 3.99 79.53 4.28L79.53 4.28L79.53 4.28Q79.34 4.56 79.31 5.14L79.31 5.14L79.31 5.14Q79.28 5.68 79.24 8.19L79.24 8.19L79.24 8.19Q79.20 10.70 79.20 10.99L79.20 10.99L79.20 11.55L79.20 11.55Q79.20 12.56 79.53 12.66L79.53 12.66L79.53 12.66Q79.88 12.77 80.14 12.77L80.14 12.77L80.14 12.77Q81.19 12.77 81.98 12.67L81.98 12.67L81.98 12.67Q82.77 12.57 83.17 12.42L83.17 12.42L83.17 12.42Q83.57 12.28 83.83 12.10L83.83 12.10L83.83 12.10Q84.10 11.93 84.18 11.78L84.18 11.78L84.18 11.78Q84.25 11.63 84.33 11.54L84.33 11.54L84.33 11.54Q84.41 11.44 84.49 11.44L84.49 11.44L84.49 11.44Q84.66 11.44 84.66 11.68L84.66 11.68L84.66 11.68Q84.66 12.28 84.06 12.89L84.06 12.89L84.06 12.89Q83.45 13.51 83.01 13.51L83.01 13.51L83.01 13.51Q82.00 13.51 80.73 13.44L80.73 13.44L80.73 13.44Q79.46 13.37 79.16 13.37L79.16 13.37L79.16 13.37Q78.76 13.37 78.25 13.43L78.25 13.43L78.25 13.43Q77.74 13.48 77.41 13.48L77.41 13.48L77.41 13.48Q77.00 13.48 77.00 13.31L77.00 13.31L77.00 13.31Q77.00 13.22 77.08 13.15L77.08 13.15L77.08 13.15Q77.15 13.09 77.22 13.09L77.22 13.09L77.22 13.09Q77.43 13.09 77.63 12.95L77.63 12.95L77.63 12.95Q77.88 12.75 77.99 12.23L77.99 12.23L77.99 12.23Q78.11 11.70 78.11 10.21L78.11 10.21L78.11 8.47L78.11 8.47Q78.11 8.09 78.13 7.29L78.13 7.29L78.13 7.29Q78.15 6.50 78.15 6.05L78.15 6.05L78.15 6.05Q78.15 5.67 78.12 4.77L78.12 4.77L78.12 4.77Q78.11 4.37 77.77 4.14L77.77 4.14L77.77 4.14Q77.43 3.92 76.99 3.91L76.99 3.91L76.99 3.91Q76.85 3.91 76.81 3.86L76.81 3.86L76.81 3.86Q76.78 3.81 76.78 3.71ZM92.22 3.65L92.22 3.65L92.22 3.65Q92.22 3.46 92.61 3.46L92.61 3.46L92.61 3.46Q92.67 3.46 92.79 3.47L92.79 3.47L92.79 3.47Q92.92 3.49 92.99 3.49L92.99 3.49L92.99 3.49Q93.03 3.49 94.30 3.52L94.30 3.52L94.30 3.52Q95.58 3.56 96.40 3.56L96.40 3.56L96.40 3.56Q96.70 3.56 97.85 3.53L97.85 3.53L97.85 3.53Q99.01 3.50 99.20 3.50L99.20 3.50L99.20 3.50Q99.47 3.50 99.47 3.82L99.47 3.82L99.47 3.82Q99.47 3.91 99.39 4.38L99.39 4.38L99.39 4.38Q99.30 4.84 99.30 5.25L99.30 5.25L99.30 5.25Q99.30 5.38 99.23 5.47L99.23 5.47L99.23 5.47Q99.16 5.56 99.08 5.56L99.08 5.56L99.08 5.56Q98.87 5.56 98.87 5.26L98.87 5.26L98.87 5.26Q98.87 4.89 98.63 4.58L98.63 4.58L98.63 4.58Q98.39 4.27 98.04 4.26L98.04 4.26L98.04 4.26Q96.78 4.16 96.11 4.16L96.11 4.16L95.75 4.16L95.75 4.16Q95.02 4.16 94.90 4.26L94.90 4.26L94.90 4.26Q94.78 4.37 94.75 5.01L94.75 5.01L94.75 5.01Q94.70 6.02 94.70 7.35L94.70 7.35L94.70 7.35Q94.70 8.05 94.96 8.06L94.96 8.06L95.31 8.06L95.90 8.06L96.33 8.06L96.33 8.06Q97.17 8.06 97.45 8.01L97.45 8.01L97.45 8.01Q97.73 7.95 97.96 7.80L97.96 7.80L97.96 7.80Q98.22 7.62 98.28 7.28L98.28 7.28L98.28 7.28Q98.32 7.04 98.48 7.04L98.48 7.04L98.48 7.04Q98.60 7.04 98.63 7.08L98.63 7.08L98.63 7.08Q98.66 7.13 98.66 7.27L98.66 7.27L98.66 7.27Q98.66 7.36 98.60 7.91L98.60 7.91L98.60 7.91Q98.55 8.46 98.55 8.74L98.55 8.74L98.55 8.74Q98.55 9.00 98.57 9.24L98.57 9.24L98.57 9.24Q98.59 9.48 98.59 9.59L98.59 9.59L98.59 9.59Q98.59 9.94 98.49 9.94L98.49 9.94L98.49 9.94Q98.28 9.94 98.18 9.60L98.18 9.60L98.18 9.60Q97.99 9.02 97.83 8.92L97.83 8.92L97.83 8.92Q97.54 8.72 96.49 8.72L96.49 8.72L96.49 8.72Q96.07 8.72 95.81 8.72L95.81 8.72L95.81 8.72Q95.55 8.72 95.47 8.71L95.47 8.71L95.47 8.71Q95.40 8.71 95.35 8.71L95.35 8.71L95.35 8.71Q95.30 8.71 95.26 8.71L95.26 8.71L95.26 8.71Q94.68 8.71 94.68 8.97L94.68 8.97L94.68 8.97Q94.68 9.38 94.67 9.99L94.67 9.99L94.67 9.99Q94.65 10.60 94.65 10.99L94.65 10.99L94.65 11.55L94.65 11.55Q94.65 12.56 94.99 12.66L94.99 12.66L94.99 12.66Q95.34 12.77 95.59 12.77L95.59 12.77L95.59 12.77Q96.64 12.77 97.43 12.67L97.43 12.67L97.43 12.67Q98.22 12.57 98.62 12.42L98.62 12.42L98.62 12.42Q99.02 12.28 99.29 12.10L99.29 12.10L99.29 12.10Q99.55 11.93 99.63 11.78L99.63 11.78L99.63 11.78Q99.71 11.63 99.79 11.54L99.79 11.54L99.79 11.54Q99.86 11.44 99.95 11.44L99.95 11.44L99.95 11.44Q100.11 11.44 100.11 11.68L100.11 11.68L100.11 11.68Q100.11 12.28 99.51 12.89L99.51 12.89L99.51 12.89Q98.91 13.51 98.46 13.51L98.46 13.51L98.46 13.51Q97.45 13.51 96.19 13.44L96.19 13.44L96.19 13.44Q94.92 13.37 94.61 13.37L94.61 13.37L94.61 13.37Q94.22 13.37 93.63 13.43L93.63 13.43L93.63 13.43Q93.04 13.50 92.71 13.50L92.71 13.50L92.71 13.50Q92.41 13.50 92.41 13.36L92.41 13.36L92.41 13.36Q92.41 13.23 92.41 13.19L92.41 13.19L92.41 13.19Q92.41 13.15 92.46 13.12L92.46 13.12L92.46 13.12Q92.50 13.09 92.55 13.08L92.55 13.08L92.55 13.08Q92.60 13.08 92.73 13.03L92.73 13.03L92.73 13.03Q92.86 12.99 93.02 12.92L93.02 12.92L93.02 12.92Q93.35 12.75 93.46 12.26L93.46 12.26L93.46 12.26Q93.56 11.77 93.56 10.21L93.56 10.21L93.56 8.47L93.56 8.47Q93.56 8.09 93.58 7.29L93.58 7.29L93.58 7.29Q93.60 6.50 93.60 6.05L93.60 6.05L93.60 6.05Q93.60 5.67 93.58 4.77L93.58 4.77L93.58 4.77Q93.56 4.37 93.23 4.14L93.23 4.14L93.23 4.14Q92.89 3.92 92.44 3.91L92.44 3.91L92.44 3.91Q92.22 3.91 92.22 3.65ZM107.67 3.64L107.67 3.64L107.67 3.64Q107.67 3.51 107.79 3.49L107.79 3.49L107.79 3.49Q107.91 3.47 108.39 3.47L108.39 3.47L109.61 3.47L109.61 3.47Q109.96 3.47 110.89 3.44L110.89 3.44L110.89 3.44Q111.83 3.42 112.34 3.42L112.34 3.42L112.34 3.42Q113.30 3.42 114.27 3.71L114.27 3.71L114.27 3.71Q115.23 4.00 116.05 4.56L116.05 4.56L116.05 4.56Q116.86 5.11 117.36 6.00L117.36 6.00L117.36 6.00Q117.87 6.89 117.87 7.98L117.87 7.98L117.87 7.98Q117.87 8.96 117.73 9.68L117.73 9.68L117.73 9.68Q117.60 10.40 117.29 10.93L117.29 10.93L117.29 10.93Q116.98 11.45 116.68 11.78L116.68 11.78L116.68 11.78Q116.37 12.11 115.84 12.56L115.84 12.56L115.84 12.56Q115.42 12.89 114.62 13.19L114.62 13.19L114.62 13.19Q113.82 13.48 112.98 13.48L112.98 13.48L112.98 13.48Q112.90 13.48 111.55 13.45L111.55 13.45L111.55 13.45Q110.21 13.41 109.62 13.41L109.62 13.41L109.62 13.41Q109.13 13.41 108.71 13.45L108.71 13.45L108.71 13.45Q108.29 13.48 108.22 13.48L108.22 13.48L108.22 13.48Q107.88 13.48 107.88 13.30L107.88 13.30L107.88 13.30Q107.88 13.19 107.93 13.14L107.93 13.14L107.93 13.14Q107.98 13.09 108.14 13.05L108.14 13.05L108.14 13.05Q108.30 13.01 108.37 12.98L108.37 12.98L108.37 12.98Q108.60 12.88 108.79 12.61L108.79 12.61L108.79 12.61Q108.98 12.33 108.98 12.07L108.98 12.07L108.98 12.07Q108.98 11.28 108.98 10.07L108.98 10.07L108.98 10.07Q108.99 8.85 108.99 8.27L108.99 8.27L108.99 8.27Q108.99 7.77 108.98 6.70L108.98 6.70L108.98 6.70Q108.98 5.63 108.98 4.72L108.98 4.72L108.98 4.72Q108.98 4.48 108.75 4.23L108.75 4.23L108.75 4.23Q108.51 3.99 108.23 3.98L108.23 3.98L108.23 3.98Q108.04 3.96 107.95 3.95L107.95 3.95L107.95 3.95Q107.86 3.93 107.77 3.86L107.77 3.86L107.77 3.86Q107.67 3.78 107.67 3.64ZM110.15 11.47L110.15 11.47L110.15 11.47Q110.15 11.73 110.16 11.90L110.16 11.90L110.16 11.90Q110.17 12.07 110.22 12.21L110.22 12.21L110.22 12.21Q110.26 12.35 110.29 12.40L110.29 12.40L110.29 12.40Q110.32 12.46 110.46 12.53L110.46 12.53L110.46 12.53Q110.60 12.60 110.68 12.62L110.68 12.62L110.68 12.62Q110.75 12.64 111.01 12.71L111.01 12.71L111.01 12.71Q111.26 12.78 111.43 12.82L111.43 12.82L111.43 12.82Q111.92 12.96 112.45 12.96L112.45 12.96L112.73 12.96L112.73 12.96Q113.68 12.96 114.35 12.69L114.35 12.69L114.35 12.69Q115.02 12.42 115.64 11.83L115.64 11.83L115.64 11.83Q116.68 10.84 116.68 8.61L116.68 8.61L116.68 8.61Q116.68 7.49 116.24 6.58L116.24 6.58L116.24 6.58Q115.79 5.67 115.08 5.13L115.08 5.13L115.08 5.13Q114.37 4.59 113.54 4.30L113.54 4.30L113.54 4.30Q112.71 4.02 111.87 4.02L111.87 4.02L111.87 4.02Q111.50 4.02 111.32 4.02L111.32 4.02L111.32 4.02Q111.15 4.02 110.92 4.05L110.92 4.05L110.92 4.05Q110.68 4.09 110.61 4.11L110.61 4.11L110.61 4.11Q110.53 4.13 110.42 4.25L110.42 4.25L110.42 4.25Q110.31 4.37 110.29 4.45L110.29 4.45L110.29 4.45Q110.26 4.54 110.23 4.78L110.23 4.78L110.23 4.78Q110.19 5.03 110.19 5.21L110.19 5.21L110.19 5.21Q110.19 5.39 110.19 5.80L110.19 5.80L110.19 5.80Q110.19 6.10 110.18 7.24L110.18 7.24L110.18 7.24Q110.17 8.39 110.17 8.48L110.17 8.48L110.17 8.48Q110.17 9.32 110.16 10.30L110.16 10.30L110.16 10.30Q110.15 11.28 110.15 11.47ZM126.10 8.83L126.10 8.83L126.10 8.83Q126.10 7.31 126.71 6.09L126.71 6.09L126.71 6.09Q127.32 4.87 128.58 4.12L128.58 4.12L128.58 4.12Q129.84 3.37 131.57 3.37L131.57 3.37L131.57 3.37Q132.24 3.37 132.83 3.48L132.83 3.48L132.83 3.48Q133.42 3.58 133.80 3.72L133.80 3.72L133.80 3.72Q134.18 3.86 134.46 4.01L134.46 4.01L134.46 4.01Q134.74 4.16 134.88 4.26L134.88 4.26L134.88 4.26Q135.03 4.37 135.06 4.37L135.06 4.37L135.06 4.37Q135.10 4.37 135.25 4.26L135.25 4.26L135.25 4.26Q135.39 4.16 135.45 4.16L135.45 4.16L135.45 4.16Q135.66 4.16 135.66 4.44L135.66 4.44L135.66 4.44Q135.67 4.84 135.72 5.29L135.72 5.29L135.72 5.29Q135.77 5.74 135.81 6.03L135.81 6.03L135.81 6.03Q135.86 6.33 135.86 6.38L135.86 6.38L135.86 6.38Q135.86 6.62 135.69 6.62L135.69 6.62L135.69 6.62Q135.52 6.62 135.45 6.45L135.45 6.45L135.45 6.45Q134.96 5.39 133.81 4.65L133.81 4.65L133.81 4.65Q132.66 3.92 131.45 3.92L131.45 3.92L131.45 3.92Q129.70 3.92 128.56 5.02L128.56 5.02L128.56 5.02Q127.41 6.12 127.41 8.06L127.41 8.06L127.41 8.06Q127.41 9.35 127.89 10.49L127.89 10.49L127.89 10.49Q128.37 11.62 129.34 12.36L129.34 12.36L129.34 12.36Q130.31 13.10 131.57 13.10L131.57 13.10L131.57 13.10Q132.65 13.10 133.53 12.61L133.53 12.61L133.53 12.61Q134.40 12.12 134.50 11.49L134.50 11.49L134.50 11.49Q134.54 11.16 134.54 9.73L134.54 9.73L134.54 9.73Q134.54 9.18 134.30 8.95L134.30 8.95L134.30 8.95Q134.13 8.78 133.69 8.72L133.69 8.72L133.69 8.72Q133.27 8.68 133.20 8.55L133.20 8.55L133.20 8.55Q133.17 8.50 133.17 8.41L133.17 8.41L133.17 8.41Q133.17 8.26 133.42 8.26L133.42 8.26L133.42 8.26Q133.60 8.26 134.20 8.29L134.20 8.29L134.20 8.29Q134.81 8.33 134.97 8.33L134.97 8.33L134.97 8.33Q135.25 8.33 135.58 8.32L135.58 8.32L135.58 8.32Q135.90 8.32 136.09 8.32L136.09 8.32L136.30 8.32L136.30 8.32Q136.53 8.32 136.53 8.44L136.53 8.44L136.53 8.44Q136.53 8.54 136.17 8.69L136.17 8.69L136.17 8.69Q135.81 8.85 135.77 9.09L135.77 9.09L135.77 9.09Q135.67 9.69 135.67 10.65L135.67 10.65L135.67 10.65Q135.67 11.07 135.69 11.40L135.69 11.40L135.69 11.40Q135.70 11.72 135.71 11.85L135.71 11.85L135.71 11.85Q135.72 11.98 135.73 12.08L135.73 12.08L135.73 12.08Q135.74 12.18 135.74 12.22L135.74 12.22L135.74 12.22Q135.74 12.29 135.64 12.33L135.64 12.33L135.64 12.33Q135.53 12.36 135.30 12.42L135.30 12.42L135.30 12.42Q135.06 12.49 134.86 12.60L134.86 12.60L134.76 12.66L134.76 12.66Q134.67 12.73 134.57 12.78L134.57 12.78L134.57 12.78Q134.47 12.84 134.31 12.92L134.31 12.92L134.31 12.92Q134.15 13.01 133.98 13.09L133.98 13.09L133.98 13.09Q133.81 13.17 133.60 13.26L133.60 13.26L133.60 13.26Q133.39 13.36 133.17 13.43L133.17 13.43L133.17 13.43Q132.94 13.50 132.71 13.55L132.71 13.55L132.71 13.55Q132.47 13.61 132.21 13.64L132.21 13.64L132.21 13.64Q131.95 13.68 131.70 13.68L131.70 13.68L131.70 13.68Q130.17 13.68 129.05 13.26L129.05 13.26L129.05 13.26Q127.92 12.85 127.30 12.14L127.30 12.14L127.30 12.14Q126.69 11.44 126.39 10.61L126.39 10.61L126.39 10.61Q126.10 9.79 126.10 8.83ZM144.21 3.65L144.21 3.65L144.21 3.65Q144.21 3.46 144.61 3.46L144.61 3.46L144.61 3.46Q144.66 3.46 144.79 3.47L144.79 3.47L144.79 3.47Q144.91 3.49 144.98 3.49L144.98 3.49L144.98 3.49Q145.03 3.49 146.30 3.52L146.30 3.52L146.30 3.52Q147.57 3.56 148.40 3.56L148.40 3.56L148.40 3.56Q148.69 3.56 149.85 3.53L149.85 3.53L149.85 3.53Q151.00 3.50 151.20 3.50L151.20 3.50L151.20 3.50Q151.47 3.50 151.47 3.82L151.47 3.82L151.47 3.82Q151.47 3.91 151.38 4.38L151.38 4.38L151.38 4.38Q151.30 4.84 151.30 5.25L151.30 5.25L151.30 5.25Q151.30 5.38 151.23 5.47L151.23 5.47L151.23 5.47Q151.16 5.56 151.07 5.56L151.07 5.56L151.07 5.56Q150.86 5.56 150.86 5.26L150.86 5.26L150.86 5.26Q150.86 4.89 150.63 4.58L150.63 4.58L150.63 4.58Q150.39 4.27 150.04 4.26L150.04 4.26L150.04 4.26Q148.78 4.16 148.11 4.16L148.11 4.16L147.74 4.16L147.74 4.16Q147.01 4.16 146.90 4.26L146.90 4.26L146.90 4.26Q146.78 4.37 146.75 5.01L146.75 5.01L146.75 5.01Q146.69 6.02 146.69 7.35L146.69 7.35L146.69 7.35Q146.69 8.05 146.96 8.06L146.96 8.06L147.31 8.06L147.90 8.06L148.33 8.06L148.33 8.06Q149.17 8.06 149.45 8.01L149.45 8.01L149.45 8.01Q149.73 7.95 149.95 7.80L149.95 7.80L149.95 7.80Q150.22 7.62 150.28 7.28L150.28 7.28L150.28 7.28Q150.32 7.04 150.47 7.04L150.47 7.04L150.47 7.04Q150.60 7.04 150.63 7.08L150.63 7.08L150.63 7.08Q150.65 7.13 150.65 7.27L150.65 7.27L150.65 7.27Q150.65 7.36 150.60 7.91L150.60 7.91L150.60 7.91Q150.54 8.46 150.54 8.74L150.54 8.74L150.54 8.74Q150.54 9.00 150.56 9.24L150.56 9.24L150.56 9.24Q150.58 9.48 150.58 9.59L150.58 9.59L150.58 9.59Q150.58 9.94 150.49 9.94L150.49 9.94L150.49 9.94Q150.28 9.94 150.18 9.60L150.18 9.60L150.18 9.60Q149.98 9.02 149.83 8.92L149.83 8.92L149.83 8.92Q149.53 8.72 148.48 8.72L148.48 8.72L148.48 8.72Q148.06 8.72 147.81 8.72L147.81 8.72L147.81 8.72Q147.55 8.72 147.47 8.71L147.47 8.71L147.47 8.71Q147.39 8.71 147.34 8.71L147.34 8.71L147.34 8.71Q147.29 8.71 147.25 8.71L147.25 8.71L147.25 8.71Q146.68 8.71 146.68 8.97L146.68 8.97L146.68 8.97Q146.68 9.38 146.66 9.99L146.66 9.99L146.66 9.99Q146.65 10.60 146.65 10.99L146.65 10.99L146.65 11.55L146.65 11.55Q146.65 12.56 146.99 12.66L146.99 12.66L146.99 12.66Q147.34 12.77 147.59 12.77L147.59 12.77L147.59 12.77Q148.64 12.77 149.43 12.67L149.43 12.67L149.43 12.67Q150.22 12.57 150.62 12.42L150.62 12.42L150.62 12.42Q151.02 12.28 151.28 12.10L151.28 12.10L151.28 12.10Q151.55 11.93 151.63 11.78L151.63 11.78L151.63 11.78Q151.70 11.63 151.78 11.54L151.78 11.54L151.78 11.54Q151.86 11.44 151.94 11.44L151.94 11.44L151.94 11.44Q152.11 11.44 152.11 11.68L152.11 11.68L152.11 11.68Q152.11 12.28 151.51 12.89L151.51 12.89L151.51 12.89Q150.91 13.51 150.46 13.51L150.46 13.51L150.46 13.51Q149.45 13.51 148.18 13.44L148.18 13.44L148.18 13.44Q146.92 13.37 146.61 13.37L146.61 13.37L146.61 13.37Q146.22 13.37 145.63 13.43L145.63 13.43L145.63 13.43Q145.04 13.50 144.70 13.50L144.70 13.50L144.70 13.50Q144.41 13.50 144.41 13.36L144.41 13.36L144.41 13.36Q144.41 13.23 144.41 13.19L144.41 13.19L144.41 13.19Q144.41 13.15 144.45 13.12L144.45 13.12L144.45 13.12Q144.49 13.09 144.54 13.08L144.54 13.08L144.54 13.08Q144.59 13.08 144.73 13.03L144.73 13.03L144.73 13.03Q144.86 12.99 145.01 12.92L145.01 12.92L145.01 12.92Q145.35 12.75 145.45 12.26L145.45 12.26L145.45 12.26Q145.56 11.77 145.56 10.21L145.56 10.21L145.56 8.47L145.56 8.47Q145.56 8.09 145.58 7.29L145.58 7.29L145.58 7.29Q145.60 6.50 145.60 6.05L145.60 6.05L145.60 6.05Q145.60 5.67 145.57 4.77L145.57 4.77L145.57 4.77Q145.56 4.37 145.22 4.14L145.22 4.14L145.22 4.14Q144.89 3.92 144.44 3.91L144.44 3.91L144.44 3.91Q144.21 3.91 144.21 3.65ZM169.65 3.71L169.65 3.71L169.65 3.71Q169.65 3.50 170.04 3.50L170.04 3.50L170.04 3.50Q170.18 3.50 170.69 3.53L170.69 3.53L170.69 3.53Q171.19 3.56 171.63 3.56L171.63 3.56L171.63 3.56Q171.89 3.56 172.14 3.54L172.14 3.54L172.14 3.54Q172.38 3.53 172.86 3.53L172.86 3.53L172.86 3.53Q173.24 3.53 173.24 3.72L173.24 3.72L173.24 3.72Q173.24 3.84 172.59 4.10L172.59 4.10L172.59 4.10Q172.14 4.28 172.14 5.71L172.14 5.71L172.14 5.71Q172.14 7.60 172.12 9.05L172.12 9.05L172.12 9.05Q172.10 10.50 172.10 10.89L172.10 10.89L172.10 10.89Q172.10 12.07 172.45 12.59L172.45 12.59L172.45 12.59Q172.76 13.02 173.12 13.02L173.12 13.02L173.12 13.02Q173.15 13.02 173.26 13.03L173.26 13.03L173.26 13.03Q173.38 13.03 173.40 13.03L173.40 13.03L173.40 13.03Q173.50 13.03 173.60 13.08L173.60 13.08L173.60 13.08Q173.70 13.13 173.70 13.19L173.70 13.19L173.70 13.19Q173.70 13.34 173.62 13.39L173.62 13.39L173.62 13.39Q173.54 13.44 173.35 13.44L173.35 13.44L173.35 13.44Q172.93 13.44 172.57 13.41L172.57 13.41L172.57 13.41Q172.21 13.38 172.02 13.38L172.02 13.38L172.02 13.38Q171.63 13.38 171.16 13.42L171.16 13.42L171.16 13.42Q170.70 13.45 170.48 13.45L170.48 13.45L170.48 13.45Q169.85 13.45 169.85 13.24L169.85 13.24L169.85 13.24Q169.85 13.12 169.98 13.07L169.98 13.07L169.98 13.07Q170.11 13.02 170.28 13.00L170.28 13.00L170.28 13.00Q170.45 12.98 170.63 12.82L170.63 12.82L170.63 12.82Q170.81 12.66 170.88 12.35L170.88 12.35L170.88 12.35Q170.91 12.25 170.98 10.76L170.98 10.76L170.98 10.76Q171.04 9.27 171.04 8.61L171.04 8.61L171.04 7.81L171.04 7.81Q171.04 7.63 171.05 7.12L171.05 7.12L171.05 7.12Q171.05 6.61 171.05 6.30L171.05 6.30L171.05 5.66L171.05 5.66Q171.05 5.04 171.00 4.63L171.00 4.63L171.00 4.63Q170.95 4.30 170.63 4.12L170.63 4.12L170.63 4.12Q170.30 3.93 169.95 3.92L169.95 3.92L169.95 3.92Q169.65 3.91 169.65 3.71ZM181.79 10.82L181.79 10.82L181.79 10.82Q181.79 10.53 181.99 10.53L181.99 10.53L181.99 10.53Q182.17 10.53 182.21 10.67L182.21 10.67L182.21 10.67Q182.35 11.00 182.47 11.25L182.47 11.25L182.47 11.25Q182.59 11.49 182.85 11.85L182.85 11.85L182.85 11.85Q183.12 12.21 183.43 12.44L183.43 12.44L183.43 12.44Q183.74 12.67 184.22 12.84L184.22 12.84L184.22 12.84Q184.70 13.01 185.28 13.01L185.28 13.01L185.28 13.01Q186.33 13.01 186.96 12.45L186.96 12.45L186.96 12.45Q187.60 11.90 187.60 11.00L187.60 11.00L187.60 11.00Q187.60 10.35 187.17 9.90L187.17 9.90L187.17 9.90Q186.73 9.46 186.17 9.27L186.17 9.27L186.17 9.27Q185.61 9.09 184.75 8.77L184.75 8.77L184.75 8.77Q183.89 8.46 183.34 8.13L183.34 8.13L183.34 8.13Q182.07 7.38 182.07 6.08L182.07 6.08L182.07 6.08Q182.07 4.83 182.97 4.08L182.97 4.08L182.97 4.08Q183.88 3.33 185.32 3.33L185.32 3.33L185.32 3.33Q185.85 3.33 186.59 3.56L186.59 3.56L186.59 3.56Q187.32 3.79 187.33 3.79L187.33 3.79L187.33 3.79Q187.38 3.79 187.49 3.74L187.49 3.74L187.49 3.74Q187.60 3.68 187.66 3.68L187.66 3.68L187.66 3.68Q187.84 3.68 187.87 3.79L187.87 3.79L187.87 3.79Q188.16 5.49 188.16 5.70L188.16 5.70L188.16 5.70Q188.16 6.09 187.96 6.09L187.96 6.09L187.96 6.09Q187.84 6.09 187.77 5.89L187.77 5.89L187.77 5.89Q187.60 5.49 187.44 5.24L187.44 5.24L187.44 5.24Q187.28 4.98 187.21 4.91L187.21 4.91L187.21 4.91Q187.14 4.84 186.84 4.58L186.84 4.58L186.84 4.58Q186.09 3.91 185.01 3.91L185.01 3.91L185.01 3.91Q184.14 3.91 183.55 4.33L183.55 4.33L183.55 4.33Q182.97 4.75 182.97 5.46L182.97 5.46L182.97 5.46Q182.97 6.09 183.31 6.50L183.31 6.50L183.31 6.50Q183.65 6.90 184.23 7.13L184.23 7.13L184.23 7.13Q184.80 7.35 185.43 7.55L185.43 7.55L185.43 7.55Q186.06 7.74 186.77 8.09L186.77 8.09L186.77 8.09Q187.47 8.44 187.94 8.93L187.94 8.93L187.94 8.93Q188.50 9.53 188.50 10.43L188.50 10.43L188.50 10.43Q188.50 11.90 187.56 12.76L187.56 12.76L187.56 12.76Q186.62 13.62 185.23 13.62L185.23 13.62L185.23 13.62Q184.27 13.62 183.68 13.52L183.68 13.52L183.68 13.52Q183.09 13.41 182.48 13.09L182.48 13.09L182.48 13.09Q182.29 12.98 182.04 12.00L182.04 12.00L182.04 12.00Q181.79 11.02 181.79 10.82ZM206.57 3.72L206.57 3.72L206.57 3.72Q206.57 3.50 206.89 3.50L206.89 3.50L206.89 3.50Q206.93 3.50 207.05 3.49L207.05 3.49L207.05 3.49Q207.16 3.49 207.41 3.49L207.41 3.49L207.41 3.49Q207.48 3.49 207.80 3.51L207.80 3.51L207.80 3.51Q208.11 3.53 208.25 3.53L208.25 3.53L208.25 3.53Q208.56 3.53 209.44 3.51L209.44 3.51L209.44 3.51Q210.32 3.49 210.56 3.49L210.56 3.49L210.56 3.49Q211.88 3.49 212.83 4.15L212.83 4.15L212.83 4.15Q213.78 4.82 213.78 6.06L213.78 6.06L213.78 6.06Q213.78 6.75 213.53 7.29L213.53 7.29L213.53 7.29Q213.28 7.83 212.92 8.13L212.92 8.13L212.92 8.13Q212.56 8.44 212.12 8.64L212.12 8.64L212.12 8.64Q211.68 8.85 211.34 8.91L211.34 8.91L211.34 8.91Q210.99 8.97 210.73 8.97L210.73 8.97L210.73 8.97Q210.28 8.97 209.82 8.87L209.82 8.87L209.82 8.87Q209.36 8.76 209.36 8.65L209.36 8.65L209.36 8.65Q209.36 8.44 209.54 8.44L209.54 8.44L209.54 8.44Q209.61 8.44 209.83 8.50L209.83 8.50L209.83 8.50Q210.04 8.55 210.25 8.55L210.25 8.55L210.25 8.55Q210.57 8.55 210.94 8.46L210.94 8.46L210.94 8.46Q211.30 8.37 211.69 8.17L211.69 8.17L211.69 8.17Q212.09 7.97 212.34 7.55L212.34 7.55L212.34 7.55Q212.59 7.14 212.59 6.59L212.59 6.59L212.59 6.59Q212.59 5.66 211.83 4.85L211.83 4.85L211.83 4.85Q211.08 4.05 209.75 4.05L209.75 4.05L209.75 4.05Q209.31 4.05 209.16 4.30L209.16 4.30L209.16 4.30Q209.01 4.56 209.01 5.47L209.01 5.47L209.01 5.47Q209.01 8.39 208.99 8.80L208.99 8.80L208.99 8.80Q208.98 9.21 208.98 11.26L208.98 11.26L208.98 11.26Q208.98 12.49 209.55 12.87L209.55 12.87L209.55 12.87Q209.71 12.96 209.94 12.99L209.94 12.99L209.94 12.99Q210.17 13.02 210.32 13.01L210.32 13.01L210.32 13.01Q210.48 13.01 210.60 13.07L210.60 13.07L210.60 13.07Q210.71 13.13 210.71 13.30L210.71 13.30L210.71 13.30Q210.71 13.54 210.39 13.54L210.39 13.54L210.39 13.54Q210.07 13.54 209.26 13.50L209.26 13.50L209.26 13.50Q208.45 13.47 208.39 13.47L208.39 13.47L208.39 13.47Q208.25 13.47 207.84 13.50L207.84 13.50L207.84 13.50Q207.42 13.52 207.09 13.52L207.09 13.52L207.09 13.52Q206.65 13.52 206.65 13.37L206.65 13.37L206.65 13.37Q206.65 13.29 206.68 13.23L206.68 13.23L206.68 13.23Q206.70 13.17 206.72 13.14L206.72 13.14L206.72 13.14Q206.74 13.10 206.81 13.08L206.81 13.08L206.81 13.08Q206.88 13.05 206.91 13.03L206.91 13.03L206.91 13.03Q206.93 13.02 207.04 13.00L207.04 13.00L207.04 13.00Q207.14 12.98 207.19 12.96L207.19 12.96L207.19 12.96Q207.21 12.95 207.27 12.94L207.27 12.94L207.27 12.94Q207.33 12.94 207.35 12.93L207.35 12.93L207.35 12.93Q207.37 12.92 207.42 12.89L207.42 12.89L207.42 12.89Q207.47 12.85 207.49 12.79L207.49 12.79L207.49 12.79Q207.52 12.73 207.57 12.62L207.57 12.62L207.57 12.62Q207.62 12.52 207.68 12.35L207.68 12.35L207.68 12.35Q207.77 12.08 207.83 10.25L207.83 10.25L207.83 10.25Q207.89 8.41 207.89 7.41L207.89 7.41L207.89 7.41Q207.89 6.54 207.88 5.80L207.88 5.80L207.88 5.80Q207.87 5.07 207.87 5.03L207.87 5.03L207.87 5.03Q207.87 4.65 207.63 4.28L207.63 4.28L207.63 4.28Q207.40 3.91 206.85 3.91L206.85 3.91L206.85 3.91Q206.57 3.91 206.57 3.72ZM221.80 8.69L221.80 8.69L221.80 8.69Q221.80 6.34 223.22 4.84L223.22 4.84L223.22 4.84Q224.63 3.33 227.22 3.33L227.22 3.33L227.22 3.33Q228.42 3.33 229.39 3.68L229.39 3.68L229.39 3.68Q230.36 4.03 230.92 4.54L230.92 4.54L230.92 4.54Q231.48 5.05 231.85 5.71L231.85 5.71L231.85 5.71Q232.23 6.37 232.37 6.92L232.37 6.92L232.37 6.92Q232.51 7.48 232.51 7.95L232.51 7.95L232.51 7.95Q232.51 9.86 231.77 11.16L231.77 11.16L231.77 11.16Q231.03 12.47 229.82 13.07L229.82 13.07L229.82 13.07Q228.61 13.66 227.02 13.66L227.02 13.66L227.02 13.66Q225.36 13.66 224.15 12.94L224.15 12.94L224.15 12.94Q222.94 12.21 222.37 11.10L222.37 11.10L222.37 11.10Q221.80 10.00 221.80 8.69ZM223.03 7.98L223.03 7.98L223.03 7.98Q223.03 8.54 223.19 9.19L223.19 9.19L223.19 9.19Q223.34 9.84 223.69 10.54L223.69 10.54L223.69 10.54Q224.04 11.23 224.54 11.78L224.54 11.78L224.54 11.78Q225.04 12.33 225.80 12.69L225.80 12.69L225.80 12.69Q226.56 13.05 227.47 13.05L227.47 13.05L227.47 13.05Q227.95 13.05 228.47 12.90L228.47 12.90L228.47 12.90Q229.00 12.75 229.52 12.45L229.52 12.45L229.52 12.45Q230.03 12.14 230.44 11.70L230.44 11.70L230.44 11.70Q230.85 11.26 231.11 10.62L231.11 10.62L231.11 10.62Q231.36 9.98 231.36 9.24L231.36 9.24L231.36 9.24Q231.36 6.71 230.03 5.30L230.03 5.30L230.03 5.30Q228.70 3.89 226.74 3.89L226.74 3.89L226.74 3.89Q225.20 3.89 224.12 4.93L224.12 4.93L224.12 4.93Q223.03 5.96 223.03 7.98ZM240.11 3.71L240.11 3.71L240.11 3.71Q240.11 3.51 240.49 3.51L240.49 3.51L240.49 3.51Q240.58 3.51 241.03 3.54L241.03 3.54L241.03 3.54Q241.49 3.56 242.03 3.56L242.03 3.56L242.03 3.56Q242.42 3.56 242.82 3.54L242.82 3.54L242.82 3.54Q243.21 3.51 243.24 3.51L243.24 3.51L243.24 3.51Q243.36 3.51 243.40 3.55L243.40 3.55L243.40 3.55Q243.43 3.58 243.43 3.68L243.43 3.68L243.43 3.68Q243.43 3.77 243.13 3.92L243.13 3.92L243.13 3.92Q242.83 4.07 242.83 4.34L242.83 4.34L242.83 4.34Q242.83 4.47 242.89 4.65L242.89 4.65L242.89 4.65Q242.94 4.83 243.11 5.22L243.11 5.22L243.11 5.22Q243.28 5.61 243.47 6.03L243.47 6.03L243.47 6.03Q243.66 6.45 244.05 7.33L244.05 7.33L244.05 7.33Q244.44 8.20 244.82 9.07L244.82 9.07L244.82 9.07Q244.92 9.30 245.10 9.74L245.10 9.74L245.10 9.74Q245.29 10.18 245.41 10.46L245.41 10.46L245.41 10.46Q245.53 10.74 245.67 11.05L245.67 11.05L245.67 11.05Q245.81 11.37 245.90 11.52L245.90 11.52L245.90 11.52Q245.99 11.68 246.04 11.68L246.04 11.68L246.04 11.68Q246.09 11.68 246.48 10.81L246.48 10.81L246.48 10.81Q246.88 9.94 247.18 9.17L247.18 9.17L247.18 9.17Q247.24 9.04 247.32 8.89L247.32 8.89L247.32 8.89Q247.39 8.74 247.43 8.63L247.43 8.63L247.43 8.63Q247.46 8.53 247.46 8.41L247.46 8.41L247.46 8.41Q247.46 8.25 246.62 6.36L246.62 6.36L246.62 6.36Q245.78 4.48 245.55 4.21L245.55 4.21L245.55 4.21Q245.49 4.14 245.43 4.10L245.43 4.10L245.43 4.10Q245.38 4.06 245.33 4.02L245.33 4.02L245.33 4.02Q245.28 3.99 245.25 3.97L245.25 3.97L245.25 3.97Q245.21 3.95 245.15 3.94L245.15 3.94L245.15 3.94Q245.10 3.93 245.08 3.93L245.08 3.93L245.08 3.93Q245.06 3.93 244.99 3.93L244.99 3.93L244.99 3.93Q244.93 3.92 244.92 3.92L244.92 3.92L244.92 3.92Q244.52 3.88 244.44 3.84L244.44 3.84L244.44 3.84Q244.36 3.81 244.36 3.70L244.36 3.70L244.36 3.70Q244.36 3.50 244.76 3.50L244.76 3.50L244.76 3.50Q244.85 3.50 245.31 3.53L245.31 3.53L245.31 3.53Q245.77 3.56 246.30 3.56L246.30 3.56L246.30 3.56Q246.33 3.56 246.68 3.53L246.68 3.53L246.68 3.53Q247.03 3.50 247.23 3.50L247.23 3.50L247.23 3.50Q247.65 3.50 247.65 3.61L247.65 3.61L247.65 3.61Q247.65 3.70 247.49 3.78L247.49 3.78L247.49 3.78Q247.34 3.86 247.19 4.00L247.19 4.00L247.19 4.00Q247.04 4.13 247.04 4.33L247.04 4.33L247.04 4.33Q247.04 4.59 247.48 5.57L247.48 5.57L247.48 5.57Q247.51 5.63 247.67 6.03L247.67 6.03L247.67 6.03Q247.83 6.44 247.95 6.71L247.95 6.71L247.95 6.71Q248.08 6.99 248.14 6.99L248.14 6.99L248.14 6.99Q248.25 6.99 248.70 5.76L248.70 5.76L248.70 5.76Q249.14 4.54 249.14 4.31L249.14 4.31L249.14 4.31Q249.14 4.06 248.93 3.96L248.93 3.96L248.93 3.96Q248.72 3.85 248.51 3.80L248.51 3.80L248.51 3.80Q248.30 3.75 248.30 3.64L248.30 3.64L248.30 3.64Q248.30 3.49 248.61 3.49L248.61 3.49L248.61 3.49Q248.70 3.49 249.03 3.50L249.03 3.50L249.03 3.50Q249.37 3.51 249.51 3.51L249.51 3.51L249.75 3.51L249.75 3.51Q249.94 3.51 250.49 3.47L250.49 3.47L250.61 3.47L250.61 3.47Q250.80 3.47 250.80 3.61L250.80 3.61L250.80 3.61Q250.80 3.75 250.53 3.84L250.53 3.84L250.53 3.84Q250.26 3.92 250.17 4.02L250.17 4.02L250.17 4.02Q249.94 4.24 249.77 4.66L249.77 4.66L249.77 4.66Q249.48 5.38 249.07 6.33L249.07 6.33L249.07 6.33Q248.65 7.31 248.58 7.50L248.58 7.50L248.58 7.50Q248.51 7.70 248.51 7.85L248.51 7.85L248.51 7.85Q248.51 7.97 249.37 9.87L249.37 9.87L249.37 9.87Q250.22 11.77 250.38 11.77L250.38 11.77L250.38 11.77Q250.54 11.77 252.01 8.24L252.01 8.24L252.01 8.24Q253.47 4.70 253.47 4.35L253.47 4.35L253.47 4.35Q253.47 4.13 253.31 4.01L253.31 4.01L253.31 4.01Q253.15 3.89 252.95 3.87L252.95 3.87L252.95 3.87Q252.76 3.85 252.59 3.80L252.59 3.80L252.59 3.80Q252.43 3.75 252.43 3.64L252.43 3.64L252.43 3.64Q252.43 3.54 252.48 3.52L252.48 3.52L252.48 3.52Q252.52 3.50 252.70 3.50L252.70 3.50L252.70 3.50Q252.74 3.50 253.02 3.51L253.02 3.51L253.02 3.51Q253.30 3.51 253.58 3.51L253.58 3.51L253.58 3.51Q253.83 3.51 254.15 3.50L254.15 3.50L254.15 3.50Q254.46 3.49 254.83 3.49L254.83 3.49L254.83 3.49Q255.11 3.49 255.11 3.68L255.11 3.68L255.11 3.68Q255.11 3.78 255.03 3.84L255.03 3.84L255.03 3.84Q254.95 3.89 254.80 3.98L254.80 3.98L254.80 3.98Q254.65 4.06 254.53 4.17L254.53 4.17L254.53 4.17Q254.46 4.24 254.41 4.31L254.41 4.31L254.41 4.31Q254.37 4.38 254.31 4.49L254.31 4.49L254.31 4.49Q254.25 4.59 254.22 4.66L254.22 4.66L254.22 4.66Q254.18 4.73 254.11 4.91L254.11 4.91L254.11 4.91Q254.03 5.08 253.99 5.18L253.99 5.18L253.99 5.18Q252.91 7.59 251.58 10.58L251.58 10.58L251.58 10.58Q250.52 13.01 250.32 13.41L250.32 13.41L250.32 13.41Q250.12 13.82 250.01 13.82L250.01 13.82L250.01 13.82Q249.94 13.82 249.84 13.64L249.84 13.64L249.84 13.64Q249.75 13.47 249.57 13.05L249.57 13.05L249.57 13.05Q249.40 12.64 249.37 12.57L249.37 12.57L249.37 12.57Q249.23 12.26 249.00 11.72L249.00 11.72L249.00 11.72Q248.77 11.17 248.61 10.79L248.61 10.79L248.61 10.79Q248.44 10.42 248.28 10.02L248.28 10.02L248.28 10.02Q248.11 9.63 248.00 9.43L248.00 9.43L248.00 9.43Q247.88 9.23 247.84 9.23L247.84 9.23L247.84 9.23Q247.70 9.23 246.90 11.16L246.90 11.16L246.90 11.16Q246.09 13.09 246.04 13.31L246.04 13.31L246.04 13.31Q246.02 13.37 246.00 13.43L246.00 13.43L246.00 13.43Q245.98 13.48 245.97 13.52L245.97 13.52L245.97 13.52Q245.95 13.57 245.94 13.61L245.94 13.61L245.94 13.61Q245.92 13.65 245.91 13.68L245.91 13.68L245.91 13.68Q245.90 13.71 245.89 13.73L245.89 13.73L245.89 13.73Q245.88 13.76 245.87 13.78L245.87 13.78L245.87 13.78Q245.85 13.80 245.84 13.82L245.84 13.82L245.84 13.82Q245.83 13.83 245.81 13.84L245.81 13.84L245.81 13.84Q245.80 13.85 245.78 13.85L245.78 13.85L245.78 13.85Q245.77 13.86 245.74 13.86L245.74 13.86L245.74 13.86Q245.62 13.86 245.43 13.46L245.43 13.46L245.43 13.46Q245.25 13.06 244.78 11.89L244.78 11.89L244.78 11.89Q244.30 10.72 243.81 9.65L243.81 9.65L243.81 9.65Q243.00 7.87 242.09 5.63L242.09 5.63L242.09 5.63Q241.82 4.96 241.51 4.57L241.51 4.57L241.51 4.57Q241.21 4.19 240.97 4.09L240.97 4.09L240.97 4.09Q240.73 3.99 240.53 3.98L240.53 3.98L240.53 3.98Q240.34 3.96 240.23 3.92L240.23 3.92L240.23 3.92Q240.11 3.88 240.11 3.71ZM262.65 3.65L262.65 3.65L262.65 3.65Q262.65 3.46 263.05 3.46L263.05 3.46L263.05 3.46Q263.10 3.46 263.23 3.47L263.23 3.47L263.23 3.47Q263.35 3.49 263.42 3.49L263.42 3.49L263.42 3.49Q263.47 3.49 264.74 3.52L264.74 3.52L264.74 3.52Q266.01 3.56 266.84 3.56L266.84 3.56L266.84 3.56Q267.13 3.56 268.29 3.53L268.29 3.53L268.29 3.53Q269.44 3.50 269.64 3.50L269.64 3.50L269.64 3.50Q269.91 3.50 269.91 3.82L269.91 3.82L269.91 3.82Q269.91 3.91 269.82 4.38L269.82 4.38L269.82 4.38Q269.74 4.84 269.74 5.25L269.74 5.25L269.74 5.25Q269.74 5.38 269.67 5.47L269.67 5.47L269.67 5.47Q269.60 5.56 269.51 5.56L269.51 5.56L269.51 5.56Q269.30 5.56 269.30 5.26L269.30 5.26L269.30 5.26Q269.30 4.89 269.07 4.58L269.07 4.58L269.07 4.58Q268.83 4.27 268.48 4.26L268.48 4.26L268.48 4.26Q267.22 4.16 266.55 4.16L266.55 4.16L266.18 4.16L266.18 4.16Q265.45 4.16 265.34 4.26L265.34 4.26L265.34 4.26Q265.22 4.37 265.19 5.01L265.19 5.01L265.19 5.01Q265.13 6.02 265.13 7.35L265.13 7.35L265.13 7.35Q265.13 8.05 265.40 8.06L265.40 8.06L265.75 8.06L266.34 8.06L266.77 8.06L266.77 8.06Q267.61 8.06 267.89 8.01L267.89 8.01L267.89 8.01Q268.17 7.95 268.39 7.80L268.39 7.80L268.39 7.80Q268.66 7.62 268.72 7.28L268.72 7.28L268.72 7.28Q268.76 7.04 268.91 7.04L268.91 7.04L268.91 7.04Q269.04 7.04 269.07 7.08L269.07 7.08L269.07 7.08Q269.09 7.13 269.09 7.27L269.09 7.27L269.09 7.27Q269.09 7.36 269.04 7.91L269.04 7.91L269.04 7.91Q268.98 8.46 268.98 8.74L268.98 8.74L268.98 8.74Q268.98 9.00 269.00 9.24L269.00 9.24L269.00 9.24Q269.02 9.48 269.02 9.59L269.02 9.59L269.02 9.59Q269.02 9.94 268.93 9.94L268.93 9.94L268.93 9.94Q268.72 9.94 268.62 9.60L268.62 9.60L268.62 9.60Q268.42 9.02 268.27 8.92L268.27 8.92L268.27 8.92Q267.97 8.72 266.92 8.72L266.92 8.72L266.92 8.72Q266.50 8.72 266.25 8.72L266.25 8.72L266.25 8.72Q265.99 8.72 265.91 8.71L265.91 8.71L265.91 8.71Q265.83 8.71 265.78 8.71L265.78 8.71L265.78 8.71Q265.73 8.71 265.69 8.71L265.69 8.71L265.69 8.71Q265.12 8.71 265.12 8.97L265.12 8.97L265.12 8.97Q265.12 9.38 265.10 9.99L265.10 9.99L265.10 9.99Q265.09 10.60 265.09 10.99L265.09 10.99L265.09 11.55L265.09 11.55Q265.09 12.56 265.43 12.66L265.43 12.66L265.43 12.66Q265.78 12.77 266.03 12.77L266.03 12.77L266.03 12.77Q267.08 12.77 267.87 12.67L267.87 12.67L267.87 12.67Q268.66 12.57 269.06 12.42L269.06 12.42L269.06 12.42Q269.46 12.28 269.72 12.10L269.72 12.10L269.72 12.10Q269.99 11.93 270.07 11.78L270.07 11.78L270.07 11.78Q270.14 11.63 270.22 11.54L270.22 11.54L270.22 11.54Q270.30 11.44 270.38 11.44L270.38 11.44L270.38 11.44Q270.55 11.44 270.55 11.68L270.55 11.68L270.55 11.68Q270.55 12.28 269.95 12.89L269.95 12.89L269.95 12.89Q269.35 13.51 268.90 13.51L268.90 13.51L268.90 13.51Q267.89 13.51 266.62 13.44L266.62 13.44L266.62 13.44Q265.36 13.37 265.05 13.37L265.05 13.37L265.05 13.37Q264.66 13.37 264.07 13.43L264.07 13.43L264.07 13.43Q263.48 13.50 263.14 13.50L263.14 13.50L263.14 13.50Q262.85 13.50 262.85 13.36L262.85 13.36L262.85 13.36Q262.85 13.23 262.85 13.19L262.85 13.19L262.85 13.19Q262.85 13.15 262.89 13.12L262.89 13.12L262.89 13.12Q262.93 13.09 262.98 13.08L262.98 13.08L262.98 13.08Q263.03 13.08 263.17 13.03L263.17 13.03L263.17 13.03Q263.30 12.99 263.45 12.92L263.45 12.92L263.45 12.92Q263.79 12.75 263.89 12.26L263.89 12.26L263.89 12.26Q264.00 11.77 264.00 10.21L264.00 10.21L264.00 8.47L264.00 8.47Q264.00 8.09 264.02 7.29L264.02 7.29L264.02 7.29Q264.04 6.50 264.04 6.05L264.04 6.05L264.04 6.05Q264.04 5.67 264.01 4.77L264.01 4.77L264.01 4.77Q264.00 4.37 263.66 4.14L263.66 4.14L263.66 4.14Q263.33 3.92 262.88 3.91L262.88 3.91L262.88 3.91Q262.65 3.91 262.65 3.65ZM278.11 3.70L278.11 3.70L278.11 3.70Q278.11 3.47 278.52 3.47L278.52 3.47L280.84 3.47L280.84 3.47Q281.16 3.47 281.58 3.45L281.58 3.45L281.58 3.45Q282.00 3.43 282.24 3.43L282.24 3.43L282.24 3.43Q283.50 3.43 284.40 4.07L284.40 4.07L284.40 4.07Q285.29 4.70 285.29 5.78L285.29 5.78L285.29 5.78Q285.29 6.50 285.02 7.03L285.02 7.03L285.02 7.03Q284.75 7.57 284.42 7.81L284.42 7.81L284.42 7.81Q284.09 8.05 283.82 8.22L283.82 8.22L283.82 8.22Q283.54 8.40 283.54 8.46L283.54 8.46L283.54 8.46Q283.54 8.62 284.72 10.27L284.72 10.27L284.72 10.27Q285.89 11.91 286.33 12.38L286.33 12.38L286.33 12.38Q286.86 13.03 287.62 13.03L287.62 13.03L287.62 13.03Q287.81 13.03 287.81 13.20L287.81 13.20L287.81 13.20Q287.81 13.41 287.64 13.48L287.64 13.48L287.64 13.48Q287.48 13.55 286.78 13.55L286.78 13.55L286.78 13.55Q286.12 13.55 285.57 13.23L285.57 13.23L285.57 13.23Q284.87 12.82 283.21 10.09L283.21 10.09L283.21 10.09Q283.11 9.94 283.07 9.87L283.07 9.87L283.07 9.87Q282.39 8.78 282.03 8.78L282.03 8.78L281.74 8.78L280.88 8.78L280.88 8.78Q280.71 8.78 280.68 8.92L280.68 8.92L280.68 8.92Q280.64 9.06 280.64 9.77L280.64 9.77L280.64 9.77Q280.64 10.44 280.64 10.88L280.64 10.88L280.64 10.88Q280.64 11.31 280.65 11.43L280.65 11.43L280.65 11.43Q280.66 11.55 280.66 11.63L280.66 11.63L280.66 11.63Q280.66 11.70 280.66 11.75L280.66 11.75L280.66 11.75Q280.66 12.32 280.92 12.63L280.92 12.63L280.92 12.63Q281.19 12.95 281.52 13.00L281.52 13.00L281.52 13.00Q281.85 13.05 282.11 13.11L282.11 13.11L282.11 13.11Q282.38 13.17 282.38 13.31L282.38 13.31L282.38 13.31Q282.38 13.54 282.13 13.54L282.13 13.54L282.13 13.54Q282.11 13.54 281.16 13.49L281.16 13.49L281.16 13.49Q280.21 13.44 280.13 13.44L280.13 13.44L280.13 13.44Q279.72 13.44 279.16 13.47L279.16 13.47L279.16 13.47Q278.60 13.50 278.59 13.50L278.59 13.50L278.59 13.50Q278.29 13.50 278.29 13.27L278.29 13.27L278.29 13.27Q278.29 13.12 278.47 13.05L278.47 13.05L278.47 13.05Q278.66 12.99 278.88 12.96L278.88 12.96L278.88 12.96Q279.10 12.94 279.29 12.66L279.29 12.66L279.29 12.66Q279.47 12.38 279.47 11.86L279.47 11.86L279.47 11.86Q279.47 11.49 279.48 9.90L279.48 9.90L279.48 9.90Q279.48 8.30 279.48 7.45L279.48 7.45L279.48 7.45Q279.48 6.58 279.48 5.86L279.48 5.86L279.48 5.86Q279.47 5.14 279.47 5.08L279.47 5.08L279.47 5.08Q279.47 4.56 279.26 4.29L279.26 4.29L279.26 4.29Q279.05 4.02 278.79 3.98L278.79 3.98L278.79 3.98Q278.53 3.95 278.32 3.89L278.32 3.89L278.32 3.89Q278.11 3.84 278.11 3.70ZM280.64 5.54L280.64 5.94L280.64 5.94Q280.64 7.38 280.66 7.72L280.66 7.72L280.66 7.72Q280.67 8.06 280.76 8.12L280.76 8.12L280.76 8.12Q280.97 8.25 281.36 8.25L281.36 8.25L281.50 8.25L281.90 8.25L281.90 8.25Q283.09 8.25 283.61 7.70L283.61 7.70L283.61 7.70Q284.12 7.15 284.12 6.30L284.12 6.30L284.12 6.30Q284.12 5.43 283.44 4.72L283.44 4.72L283.44 4.72Q282.76 4.00 281.39 4.00L281.39 4.00L281.39 4.00Q280.87 4.00 280.76 4.28L280.76 4.28L280.76 4.28Q280.64 4.55 280.64 5.54L280.64 5.54Z"></path></g></svg>