<svg data-v-d3f97b9e="" xmlns="http://www.w3.org/2000/svg" viewBox="0 0 57.754388106496705 60"><!----><!----><!----><!----><g data-v-d3f97b9e="" id="9af82a80-248b-4281-9d3e-7e8ae60f1040" transform="matrix(0.7017543859649122,0,0,0.7017543859649122,-6.877192764951467,-2.8070175438596507)" stroke="none" fill="black"><path d="M38.7 46.7c0 8 6.5 14.5 14.5 14.5s14.5-6.5 14.5-14.5-6.5-14.5-14.5-14.5-14.5 6.5-14.5 14.5z"></path><path d="M71.5 57.3c-.6 1.1-1.3 2.1-2.1 3.1-4 4.9-10 8-16.8 8-11.9 0-21.6-9.7-21.6-21.7 0-11.9 9.7-21.6 21.6-21.6 6.7 0 12.7 3.1 16.7 7.8.8.9 1.5 1.9 2.1 3l20.7-5.8c-1.5-3.5-3.4-6.7-5.6-9.6C78.6 10.5 66.4 4 52.6 4 29 4 9.8 23.1 9.8 46.7S29 89.5 52.6 89.5c17.7 0 33-10.8 39.5-26.2l-20.6-6z"></path></g><!----></svg>